<svg width="717" height="298" fill="none" xmlns="http://www.w3.org/2000/svg"><path d="M150.91 89.803h123.463l-61.726 143.909-14.694-36.718 13.219-70.485h-45.557L150.91 89.803z" fill="#CCC"/><path fill-rule="evenodd" clip-rule="evenodd" d="M212.647 34c63.316 0 114.647 51.274 114.647 114.533 0 63.269-51.331 114.544-114.647 114.544C149.332 263.077 98 211.802 98 148.533 98 85.274 149.332 34 212.647 34zM109.755 148.533c0 56.774 46.072 102.8 102.892 102.8 56.82 0 102.881-46.026 102.881-102.8 0-56.763-46.061-102.79-102.881-102.79S109.755 91.77 109.755 148.534z" fill="#B0B0B0"/><path d="M383.623 110.226h-18.982l-23.293 78.626h51.571l4.151-14.042h-32.578l19.131-64.584zm60.582 78.626h19.04l-1.247-78.626h-20.286l-47.775 78.626h18.982l8.748-15.288h22.778l-.24 15.288zm.618-55.676l.331.045-.457 26.301h-15.014l15.14-26.346zm52.075 55.676c9.754 0 17.644-1.852 23.693-5.534 6.038-3.694 10.28-9.605 12.727-17.747 1.224-4.105 1.235-7.719.057-10.852-1.189-3.133-3.865-5.214-8.039-6.266 4.048-1.407 7.33-3.534 9.846-6.392 2.516-2.871 4.368-6.278 5.58-10.235 2.081-7.021.824-12.384-3.785-16.066-4.619-3.693-11.458-5.534-20.526-5.534h-26.803l-23.293 78.626h30.543zm11.023-33.756c3.476 0 5.706.824 6.678 2.459.972 1.635.938 4.277-.091 7.913-.95 3.099-2.585 5.42-4.906 6.987-2.333 1.566-5.18 2.355-8.542 2.355h-11.561l5.843-19.714h12.579zm-3.442-30.828h7.81c4.082 0 6.85.709 8.29 2.127 1.441 1.418 1.659 3.91.629 7.478-.926 2.882-2.63 5.1-5.111 6.667-2.481 1.566-5.512 2.39-9.102 2.458h-8.108l5.592-18.73zm72.052 49.753c-2.207 1.281-4.448 1.921-6.712 1.921-3.66 0-6.633-.731-8.908-2.218-2.264-1.475-2.802-4.185-1.59-8.153h-18.41l-.137.331c-2.642 8.165-1.224 14.226 4.231 18.171 5.454 3.945 12.338 5.911 20.651 5.911 8.393 0 15.62-1.749 21.704-5.237 6.083-3.499 10.165-8.702 12.235-15.608 2.024-6.839 1.327-12.373-2.081-16.604s-9.079-7.73-16.992-10.509c-6.072-2.378-9.949-4.254-11.641-5.637-1.693-1.384-2.093-3.579-1.189-6.564.537-1.841 1.875-3.408 4.036-4.723 2.15-1.315 4.403-1.978 6.735-1.978 3.328 0 5.775.938 7.353 2.813 1.578 1.876 1.91 4.391.995 7.559h18.41l.206-.32c2.333-7.422 1.269-13.288-3.213-17.61-4.483-4.323-11.012-6.484-19.588-6.484-8.233 0-15.46 1.83-21.692 5.455-6.221 3.647-10.326 8.77-12.293 15.391-1.921 6.415-.892 11.721 3.065 15.94 3.967 4.208 10.325 7.845 19.096 10.909 4.62 2.047 7.65 3.82 9.114 5.318 1.452 1.486 1.726 3.876.8 7.146-.583 1.91-1.978 3.511-4.185 4.78z" fill="#B0B0B0"/></svg>