<svg width="718" height="290" fill="none" xmlns="http://www.w3.org/2000/svg"><path d="M109.3 134.5H94.8v33c0 5.6 3.2 6.8 8.5 6.8 2 0 4-.4 6-.4v17.3c-4.4 0-8.9.8-12.9.8-20.1 0-25.4-6-25.4-25.8v-31.8H59v-15.7h12.1V97h23.8v21.7h14.5v15.8h-.1z" fill="#B0B0B0"/><path fill-rule="evenodd" clip-rule="evenodd" d="M146.4 177.6c-10.1 0-15.7-6.4-16.1-16.5v-.1h53.2c1.2-24.6-11.7-44.3-37.9-44.3-21.4 0-39.1 16.2-39.1 38.3 0 24.6 16.1 38.7 39.9 38.7 16.1 0 31.8-7.3 35.8-24.2h-22.1c-2.4 5.3-8.1 8.1-13.7 8.1zm-.8-44.7c8.1 0 13.7 6.8 14.1 14.9h-29.4c1.2-8.9 6.8-14.9 15.3-14.9z" fill="#B0B0B0"/><path d="M235.8 145.4c0-6-5.6-10.5-11.7-10.5-13.3 0-15.3 11.3-15.3 21.3 0 9.3 4 18.9 14.1 18.9 8.5 0 12.5-4.8 13.7-12.5h23c-2 19.7-16.9 31-36.2 31-21.7 0-38.3-14.9-38.3-37 0-23 14.5-39.5 38.3-39.5 18.1 0 34.2 9.7 35.8 28.6h-23.4v-.3zm24.5-48.3h23.8v31.8h.4c3.6-7.2 13.3-12.1 22.1-12.1 24.2 0 26.2 17.7 26.2 28.2v46.7H309v-35c0-10.1 1.2-20.1-12.1-20.1-8.9 0-12.9 7.7-12.9 15.7v39.5h-23.8V97.1h.1z" fill="#B0B0B0"/><path d="M334.8 118.8h23v12.9h.4c3.6-9.3 11.7-14.1 21.7-14.1 2 0 3.6 0 5.6.4v21.7c-3.2-.8-6-1.2-9.3-1.2-11.7 0-17.7 8.1-17.7 17.3v35.8h-23.8c.1.1.1-72.8.1-72.8z" fill="#CCC"/><path fill-rule="evenodd" clip-rule="evenodd" d="M385.609 141.2l-.009.2-.1-.2h.109zm0 0H407.2c1.2-6.5 5.7-9.3 12.1-9.3 5.3 0 11.7 2.1 11.7 7.7 0 4.4-2.4 6-6.4 6.8-3.201.718-6.752 1.217-10.398 1.73-15.142 2.13-31.902 4.487-31.902 23.67 0 15.3 11.3 22.1 25 22.1 8.9 0 17.8-2.5 24.2-9.3 0 2.4.4 4.4 1.2 6.8h23.8c-2.8-5.6-2.8-12.5-2.8-18.5v-31.8c0-20.6-16.5-24.2-33.8-24.2-8.1 0-16.6 1.6-23 5.2-6.455 3.575-10.839 9.517-11.291 19.1zm45.091 16.7c.8 14.9-3.2 21.3-14.5 21.3-5.3 0-9.7-2.4-9.7-8 0-5.7 4.5-8.1 9.7-9.3 1.944-.648 4.167-1.099 6.337-1.54 3.187-.647 6.259-1.27 8.163-2.46z" fill="#CCC"/><path fill-rule="evenodd" clip-rule="evenodd" d="M507.9 191.7h22.6V97.1h-23.8v30.2h-.4c-4.8-6.9-11.6-10.1-20.5-10.1-20.5 0-30.6 17.7-30.6 36.6 0 20.2 9.6 39.9 32.6 39.9 7.9.1 15.4-3.8 19.7-10.5h.4v8.5zm-14.4-16.1c-10.9 0-14.5-10.8-14.5-20.9 0-9.3 3.6-19.8 14.5-19.3 10.5 0 14.1 9.6 14.1 20.1 0 9.2-2.4 20.1-14.1 20.1zm40.709-34.4l-.009.2h-.1v-.2h.109zm0 0H555.8c1.2-6.5 5.7-9.3 12.1-9.3 5.3 0 11.7 2.1 11.7 7.7 0 4.4-2.4 6-6.4 6.8-3.201.718-6.753 1.217-10.398 1.73-15.142 2.13-31.902 4.487-31.902 23.67 0 15.3 11.3 22.1 25 22.1 8.5 0 17.8-2.5 24.2-9.3 0 2.4.4 4.4 1.2 6.8h23.8c-2.8-5.6-2.8-12.5-2.8-18.5v-31.8c0-20.6-16.5-24.2-33.8-24.2-8.1 0-16.6 1.6-23 5.2-6.455 3.575-10.839 9.517-11.291 19.1zm45.091 16.7c.8 14.9-3.2 21.3-14.5 21.3-5.3 0-10.1-2.4-9.7-8 0-5.7 4.5-8.1 9.7-9.3 1.944-.648 4.167-1.099 6.337-1.54 3.187-.647 6.259-1.27 8.163-2.46z" fill="#CCC"/><path d="M605.8 118.8h23v12.9h.4c3.6-9.3 11.7-14.1 21.7-14.1 2 0 6 0 8.1.4v21.7c-3.2-.8-8.1-1.2-11.3-1.2-11.7 0-17.7 8.1-17.7 17.3v35.8h-23.8v-72.9h-.4v.1z" fill="#CCC"/><path d="M635.2 167.9H659v23.8h-23.8v-23.8z" fill="#CCC"/></svg>