<svg width="778" height="334" fill="none" xmlns="http://www.w3.org/2000/svg"><path fill="#B0B0B0" d="M57.815 71H718v196H57.815z"/><path d="M125 132.037h-16.034v-13.548h50.09v13.548h-15.661v87.13H125v-87.13zm43.218-13.548h42.259v12.927h-23.988v28.96h18.892v12.802h-18.892v33.435h24.237v12.554h-42.508V118.489zm80.26 102.045c-10.441 0-17.857-2.9-22.249-8.701-4.309-5.883-6.463-14.169-6.463-24.858v-35.921c0-11.02 2.154-19.389 6.463-25.107 4.309-5.717 11.725-8.576 22.249-8.576 9.86 0 16.862 2.486 21.005 7.457 4.143 4.972 6.215 12.14 6.215 21.503v8.452h-17.65v-8.701c0-3.563-.166-6.338-.497-8.327-.332-2.072-1.202-3.729-2.61-4.972-1.326-1.326-3.439-1.989-6.339-1.989-2.983 0-5.22.705-6.712 2.113-1.491 1.326-2.486 3.149-2.983 5.469-.414 2.238-.621 5.179-.621 8.825v43.627c0 5.717.745 9.86 2.237 12.429 1.491 2.486 4.184 3.729 8.079 3.729 2.817 0 4.889-.663 6.214-1.989 1.409-1.326 2.279-3.066 2.611-5.22.414-2.237.621-5.179.621-8.825v-9.073h17.65v8.079c0 9.695-2.03 17.235-6.091 22.621-4.06 5.303-11.103 7.955-21.129 7.955zm40.275-102.045h18.271V160.5h20.509v-42.011h18.395v100.678h-18.395v-45.492h-20.509v45.492h-18.271V118.489zm68.975 0h15.288l8.328 65.254 10.44-65.005h12.429l10.814 65.005 8.203-65.254h15.164l-14.045 100.678h-14.915l-11.187-67.491-11.062 67.491h-15.288l-14.169-100.678zm104.095 0h19.638l20.136 100.678h-17.028l-3.978-23.243h-17.525l-4.102 23.243h-17.276l20.135-100.678zm16.78 65.751l-6.837-42.259-6.836 42.259h13.673zm33.119-65.751h18.271v88.124h24.485v12.554h-42.756V118.489zm52.314 0h18.271v88.124h24.486v12.554h-42.757V118.489zm77.185 102.045c-9.115 0-15.951-2.569-20.508-7.706-4.475-5.138-6.919-12.803-7.333-22.995l15.785-3.107c.248 6.381 1.243 11.269 2.983 14.667 1.823 3.314 4.64 4.971 8.452 4.971 2.817 0 4.888-.828 6.214-2.485 1.409-1.741 2.113-4.061 2.113-6.961 0-3.977-.911-7.333-2.734-10.068-1.74-2.817-4.516-5.883-8.328-9.197l-12.678-11.062c-3.894-3.315-6.836-6.878-8.824-10.689-1.906-3.812-2.859-8.369-2.859-13.673 0-7.871 2.278-13.962 6.836-18.271 4.64-4.391 11.021-6.587 19.141-6.587 8.7 0 14.915 2.486 18.644 7.457 3.812 4.889 6.007 11.518 6.587 19.887l-15.785 2.735c-.248-5.469-1.036-9.571-2.361-12.305-1.243-2.818-3.729-4.226-7.458-4.226-2.652 0-4.723.911-6.215 2.734-1.491 1.74-2.237 3.978-2.237 6.712 0 3.232.622 5.966 1.865 8.203 1.325 2.155 3.438 4.475 6.338 6.961l12.554 11.062c4.723 4.06 8.411 8.41 11.062 13.05 2.652 4.641 3.978 10.027 3.978 16.159 0 4.806-1.078 9.073-3.232 12.802-2.072 3.728-5.013 6.67-8.825 8.824-3.812 2.072-8.203 3.108-13.175 3.108z" fill="#fff"/></svg>