<svg width="70" height="71" fill="none" xmlns="http://www.w3.org/2000/svg"><circle cx="35" cy="36" r="35" fill="#E8F8FF"/><path d="M4.941 27.21a4.944 4.944 0 004.941-4.947 4.944 4.944 0 00-4.94-4.948A4.944 4.944 0 000 22.263a4.944 4.944 0 004.941 4.947z" fill="#5E84BC"/><path d="M53.275 20.47L23.45 0s-1.53 4.503.944 10.376c2.475 5.873 9.747 9.738 9.747 9.738s-1.72 1.07-6.913-.075c-5.232-1.144-10.464-1.07-10.464-1.07-6.535 0-11.824 5.254-11.824 11.746 0 6.436 5.213 11.652 11.654 11.746v2.89l13.958-.075.566-1.05c0-5.442 5.535-12.347 14.525-12.347h4.023c6.195.019 8.689-7.918 3.608-11.408z" fill="#AEC1DD"/><path d="M33.526 43.346h-8.792a9.295 9.295 0 002.054-5.828c0-5.244-4.33-9.483-9.688-9.483-5.358 0-9.688 4.239-9.688 9.483 0 5.17 4.237 9.39 9.501 9.482h16.632c1.027 0 1.867-.822 1.867-1.827-.019-1.005-.859-1.827-1.886-1.827z" fill="#5E84BC"/><path fill="#5E84BC" d="M32 40h36v30H32z"/><path fill="#0AF" d="M30 38h40v6H30zm0 8h40v6H30zm0 8h40v6H30zm0 8h40v6H30z"/><circle cx="58" cy="41" r="1" fill="#E8F8FF"/><circle cx="58" cy="49" r="1" fill="#E8F8FF"/><circle cx="58" cy="57" r="1" fill="#E8F8FF"/><circle cx="58" cy="65" r="1" fill="#E8F8FF"/><circle cx="62" cy="41" r="1" fill="#E8F8FF"/><circle cx="62" cy="49" r="1" fill="#E8F8FF"/><circle cx="62" cy="57" r="1" fill="#E8F8FF"/><circle cx="62" cy="65" r="1" fill="#E8F8FF"/><circle cx="66" cy="41" r="1" fill="#E8F8FF"/><circle cx="66" cy="49" r="1" fill="#E8F8FF"/><circle cx="66" cy="57" r="1" fill="#E8F8FF"/><circle cx="66" cy="65" r="1" fill="#E8F8FF"/><path fill="#fff" d="M33 40h2v2h-2zm0 8h2v2h-2zm0 8h2v2h-2zm0 8h2v2h-2zm4-24h2v2h-2zm0 8h2v2h-2zm0 8h2v2h-2zm0 8h2v2h-2zm4-24h2v2h-2zm0 8h2v2h-2zm0 8h2v2h-2zm0 8h2v2h-2zm4-24h2v2h-2zm0 8h2v2h-2zm0 8h2v2h-2zm0 8h2v2h-2z"/></svg>