<svg width="63" height="72" fill="none" xmlns="http://www.w3.org/2000/svg"><circle cx="32" cy="36" r="30" fill="#E8F8FF"/><path d="M32 6L15.439.928l3.888 16.879L32 6zM3.5 36c0-11.255 6.524-20.989 16.003-25.621l-1.317-2.696C7.716 12.8.5 23.556.5 36h3zm8.147 19.95A28.402 28.402 0 013.5 36h-3c0 8.585 3.436 16.37 9.005 22.05l2.142-2.1z" fill="#0AF"/><path d="M32 66l16.561 5.072-3.888-16.879L32 66zm14.249-5.312c-.572.33-1.156.642-1.752.933l1.318 2.696a31.399 31.399 0 001.936-1.032l-1.502-2.597z" fill="#AEC1DD"/><path d="M53.424 15A29.898 29.898 0 0162 36c0 10.686-5.587 20.068-14 25.382" stroke="#AEC1DD" stroke-linecap="round" stroke-linejoin="round" stroke-dasharray="2 5"/><path d="M35.248 42.574c0-.996-.254-1.778-.763-2.346-.508-.568-1.402-1.104-2.68-1.608a55.654 55.654 0 01-3.543-1.532c-1.083-.517-2.015-1.116-2.798-1.797a7.08 7.08 0 01-1.8-2.365c-.418-.895-.627-1.98-.627-3.254 0-2.131.744-3.884 2.231-5.259 1.487-1.387 3.47-2.194 5.95-2.421V18h3.11v4.067c2.388.34 4.26 1.293 5.617 2.857C41.315 26.475 42 28.449 42 30.845h-6.614c0-1.312-.261-2.32-.783-3.027-.522-.706-1.266-1.06-2.231-1.06-.861 0-1.533.266-2.016.795-.47.517-.704 1.236-.704 2.157 0 .933.274 1.677.822 2.232.547.542 1.428 1.066 2.641 1.57a44.818 44.818 0 013.425 1.552c1.083.53 2.016 1.135 2.799 1.816a7.497 7.497 0 011.84 2.383c.443.908.664 2 .664 3.273 0 2.157-.71 3.916-2.133 5.278-1.409 1.362-3.333 2.157-5.773 2.384V54h-3.111v-3.821c-2.844-.29-5.03-1.23-6.556-2.819-1.513-1.602-2.27-3.708-2.27-6.319h6.595c0 1.438.326 2.536.978 3.292.666.744 1.605 1.116 2.818 1.116.888 0 1.586-.252 2.094-.756.51-.517.764-1.224.764-2.12z" fill="url(#paint0_linear)"/><defs><linearGradient id="paint0_linear" x1="32" y1="18" x2="32" y2="54" gradientUnits="userSpaceOnUse"><stop stop-color="#0AF"/><stop offset="1" stop-color="#0278FF"/></linearGradient></defs></svg>