<svg width="70" height="70" fill="none" xmlns="http://www.w3.org/2000/svg"><circle cx="35" cy="35" r="35" fill="#E8F8FF"/><rect x="1" y="17" width="54" height="31" rx="1" fill="#fff" stroke="#DDE8FA" stroke-width="2"/><path d="M24 40V24h2.202l3.46 9.64h.046V24H32v16h-2.157l-3.506-9.618h-.045V40H24z" fill="#5E84BC"/><path fill="#DDE8FA" d="M15 48h26v4H15z"/><path d="M29 55a1 1 0 011-1h32a1 1 0 011 1v8a1 1 0 01-1 1H30a1 1 0 01-1-1v-8z" fill="#0AF"/><rect x="54" y="38" width="23" height="8" rx="1" transform="rotate(90 54 38)" fill="#5E84BC"/><circle cx="35" cy="59" r="3" fill="#fff"/><circle cx="50" cy="45" r="2" fill="#fff"/><path fill="#fff" d="M47 49h6v2h-6z"/><path d="M15 20c0 6.075-4.925 11-11 11v-2a9 9 0 009-9h2z" fill="#AEC1DD"/><path d="M11 20a7 7 0 01-7 7v-2a5 5 0 005-5h2zm-4 0a3 3 0 01-3 3v-3h3z" fill="#AEC1DD"/><rect x="70" width="22" height="38" rx="3" transform="rotate(90 70 0)" fill="#0AF"/><rect x="68" y="2" width="18" height="34" rx="2" transform="rotate(90 68 2)" fill="#EBF8FF"/><path d="M68 6v10a2 2 0 01-2-2V8a2 2 0 012-2z" fill="#0AF"/><rect x="42" y="18" width="18" height="1" rx=".5" fill="#DDE8FA"/><path d="M56 10.5L49 15V6l7 4.5z" fill="#5E84BC"/></svg>