<svg width="70" height="82" fill="none" xmlns="http://www.w3.org/2000/svg"><circle cx="35" cy="35" r="35" fill="#E8F8FF"/><path d="M55 52c0-11.046-8.954-20-20-20s-20 8.954-20 20m40 9c0 11.046-8.954 20-20 20" stroke="#AEC1DD" stroke-width="2"/><path fill-rule="evenodd" clip-rule="evenodd" d="M35 77c3.943 0 7.575-1.301 10.5-3.499a2.5 2.5 0 113.004 3.998A22.411 22.411 0 0135 82a2.5 2.5 0 110-5zm0-40c-2.917 0-5.667.692-8.099 1.92a2 2 0 11-1.802-3.57 21.917 21.917 0 019.9-2.35c3.558 0 6.924.846 9.902 2.35a2 2 0 01-1.802 3.57 17.917 17.917 0 00-8.1-1.92z" fill="#5E84BC"/><rect x="9" y="55" width="4" height="10" rx="2" fill="#0AF"/><rect x="61" y="65" width="4" height="10" rx="2" transform="rotate(-180 61 65)" fill="#0AF"/><rect x="11" y="51" width="8" height="18" rx="3" fill="#0AF"/><rect x="59" y="69" width="8" height="18" rx="3" transform="rotate(-180 59 69)" fill="#0AF"/><circle cx="28" cy="61" r="2" fill="#AEC1DD"/><circle cx="35" cy="61" r="2" fill="#AEC1DD"/><circle cx="42" cy="61" r="2" fill="#AEC1DD"/><path fill-rule="evenodd" clip-rule="evenodd" d="M49 17a3 3 0 00-3 3v6a3 3 0 003 3h3v5l6-5h9a3 3 0 003-3v-6a3 3 0 00-3-3H49z" fill="#DDE8FA"/><path fill-rule="evenodd" clip-rule="evenodd" d="M2 6a2 2 0 00-2 2v12a2 2 0 002 2h16l6 6V8a2 2 0 00-2-2H2z" fill="#AEC1DD"/><path fill="#fff" d="M50 21h16v3H50z"/><path fill="#DDE8FA" d="M4 10h16v3H4zm7 5h9v3h-9z"/></svg>