<svg width="70" height="82" fill="none" xmlns="http://www.w3.org/2000/svg"><circle cx="35" cy="35" r="35" fill="#E8F8FF"/><mask id="mask0" mask-type="alpha" maskUnits="userSpaceOnUse" x="0" y="0" width="70" height="70"><circle cx="35" cy="35" r="35" fill="#E8F8FF"/></mask><g mask="url(#mask0)" fill="#D6F0FF"><path d="M-9.207 7.425c0 .79-.16 1.393-.481 1.81-.322.419-.792.628-1.411.628-.612 0-1.08-.205-1.404-.615-.323-.41-.49-.998-.497-1.764v-1.05c0-.797.162-1.402.486-1.815.326-.413.795-.619 1.407-.619s1.08.205 1.403.615c.324.408.49.994.497 1.76v1.05zm-1.114-1.152c0-.473-.064-.816-.192-1.03-.126-.218-.324-.326-.594-.326-.262 0-.456.103-.582.31-.124.203-.19.523-.197.96v1.387c0 .465.062.811.185 1.039.126.224.327.337.602.337.272 0 .469-.109.59-.326.12-.216.183-.548.188-.995V6.273zm5.648 1.152c0 .79-.16 1.393-.482 1.81-.321.419-.791.628-1.41.628-.612 0-1.08-.205-1.404-.615-.324-.41-.49-.998-.497-1.764v-1.05c0-.797.162-1.402.485-1.815.327-.413.796-.619 1.408-.619.611 0 1.079.205 1.403.615.324.408.49.994.497 1.76v1.05zm-1.114-1.152c0-.473-.064-.816-.193-1.03-.126-.218-.324-.326-.593-.326-.263 0-.457.103-.583.31-.123.203-.189.523-.196.96v1.387c0 .465.061.811.185 1.039.126.224.326.337.601.337.273 0 .47-.109.59-.326.12-.216.184-.548.189-.995V6.273zm4.576 3.511h-1.114V5.42l-1.33.419v-.921l2.325-.846h.119v5.713zm5.605-2.359c0 .79-.16 1.393-.482 1.81-.32.419-.791.628-1.41.628-.612 0-1.08-.205-1.404-.615-.324-.41-.49-.998-.497-1.764v-1.05c0-.797.162-1.402.486-1.815C1.413 4.206 1.882 4 2.494 4c.611 0 1.08.205 1.403.615.324.408.49.994.497 1.76v1.05zM3.28 6.273c0-.473-.064-.816-.192-1.03-.126-.218-.324-.326-.594-.326-.262 0-.456.103-.582.31-.124.203-.19.523-.197.96v1.387c0 .465.062.811.185 1.039.126.224.327.337.602.337.272 0 .469-.109.59-.326.12-.216.183-.548.188-.995V6.273zm5.648 1.152c0 .79-.16 1.393-.482 1.81-.321.419-.791.628-1.41.628-.613 0-1.08-.205-1.404-.615-.324-.41-.49-.998-.497-1.764v-1.05c0-.797.162-1.402.485-1.815C5.947 4.206 6.416 4 7.027 4c.612 0 1.08.205 1.404.615.324.408.49.994.497 1.76v1.05zM7.814 6.273c0-.473-.064-.816-.193-1.03-.126-.218-.324-.326-.594-.326-.262 0-.456.103-.582.31-.123.203-.189.523-.196.96v1.387c0 .465.061.811.185 1.039.126.224.326.337.601.337.273 0 .47-.109.59-.326.12-.216.184-.548.189-.995V6.273zm4.576 3.511h-1.114V5.42l-1.33.419v-.921l2.324-.846h.12v5.713zm4.534 0H15.81V5.42l-1.33.419v-.921l2.324-.846h.12v5.713zm4.533 0h-1.114V5.42l-1.33.419v-.921l2.325-.846h.12v5.713zm5.606-2.359c0 .79-.161 1.393-.482 1.81-.322.419-.792.628-1.411.628-.612 0-1.08-.205-1.404-.615-.323-.41-.49-.998-.497-1.764v-1.05c0-.797.162-1.402.486-1.815.326-.413.795-.619 1.407-.619s1.08.205 1.403.615c.324.408.49.994.498 1.76v1.05zm-1.114-1.152c0-.473-.065-.816-.193-1.03-.126-.218-.324-.326-.594-.326-.262 0-.456.103-.582.31-.123.203-.189.523-.197.96v1.387c0 .465.062.811.185 1.039.126.224.327.337.602.337.272 0 .469-.109.59-.326.12-.216.183-.548.188-.995V6.273zm4.575 3.511H29.41V5.42l-1.33.419v-.921l2.325-.846h.12v5.713zm5.606-2.359c0 .79-.16 1.393-.482 1.81-.321.419-.792.628-1.411.628-.612 0-1.08-.205-1.403-.615-.324-.41-.49-.998-.498-1.764v-1.05c0-.797.162-1.402.486-1.815.327-.413.796-.619 1.407-.619.612 0 1.08.205 1.404.615.323.408.49.994.497 1.76v1.05zm-1.114-1.152c0-.473-.064-.816-.193-1.03-.126-.218-.324-.326-.594-.326-.262 0-.456.103-.582.31-.123.203-.189.523-.196.96v1.387c0 .465.061.811.185 1.039.126.224.326.337.601.337.273 0 .47-.109.59-.326.12-.216.184-.548.189-.995V6.273zm4.576 3.511h-1.114V5.42l-1.33.419v-.921l2.324-.846h.12v5.713zm5.605-2.359c0 .79-.16 1.393-.482 1.81-.321.419-.791.628-1.41.628-.612 0-1.08-.205-1.404-.615-.324-.41-.49-.998-.497-1.764v-1.05c0-.797.162-1.402.485-1.815.327-.413.796-.619 1.408-.619.611 0 1.08.205 1.403.615.324.408.49.994.497 1.76v1.05zm-1.114-1.152c0-.473-.064-.816-.193-1.03-.126-.218-.324-.326-.593-.326-.262 0-.457.103-.582.31-.124.203-.19.523-.197.96v1.387c0 .465.062.811.185 1.039.126.224.326.337.601.337.273 0 .47-.109.59-.326.121-.216.184-.548.19-.995V6.273zm5.647 1.152c0 .79-.16 1.393-.481 1.81-.321.419-.792.628-1.411.628-.612 0-1.08-.205-1.403-.615-.324-.41-.49-.998-.498-1.764v-1.05c0-.797.162-1.402.486-1.815C46.75 4.206 47.22 4 47.83 4c.612 0 1.08.205 1.404.615.323.408.49.994.497 1.76v1.05zm-1.113-1.152c0-.473-.064-.816-.193-1.03-.126-.218-.324-.326-.594-.326-.262 0-.456.103-.582.31-.123.203-.189.523-.197.96v1.387c0 .465.062.811.186 1.039.125.224.326.337.601.337.272 0 .469-.109.59-.326.12-.216.184-.548.189-.995V6.273zm5.647 1.152c0 .79-.16 1.393-.481 1.81-.322.419-.792.628-1.411.628-.612 0-1.08-.205-1.404-.615-.324-.41-.49-.998-.497-1.764v-1.05c0-.797.162-1.402.486-1.815.326-.413.795-.619 1.407-.619s1.08.205 1.403.615c.324.408.49.994.497 1.76v1.05zM53.15 6.273c0-.473-.064-.816-.192-1.03-.126-.218-.324-.326-.594-.326-.262 0-.456.103-.582.31-.124.203-.19.523-.197.96v1.387c0 .465.062.811.185 1.039.126.224.327.337.602.337.272 0 .469-.109.59-.326.12-.216.183-.548.188-.995V6.273zm4.576 3.511h-1.114V5.42l-1.33.419v-.921l2.325-.846h.12v5.713zm5.606-2.359c0 .79-.16 1.393-.482 1.81-.321.419-.792.628-1.411.628-.612 0-1.08-.205-1.403-.615-.324-.41-.49-.998-.498-1.764v-1.05c0-.797.162-1.402.486-1.815.326-.413.795-.619 1.407-.619s1.08.205 1.404.615c.323.408.49.994.497 1.76v1.05zm-1.114-1.152c0-.473-.065-.816-.193-1.03-.126-.218-.324-.326-.594-.326-.262 0-.456.103-.582.31-.123.203-.189.523-.196.96v1.387c0 .465.061.811.184 1.039.126.224.327.337.602.337.272 0 .469-.109.59-.326.12-.216.183-.548.189-.995V6.273zm4.576 3.511H65.68V5.42l-1.33.419v-.921l2.324-.846h.12v5.713zM72.4 7.425c0 .79-.162 1.393-.483 1.81-.321.419-.791.628-1.41.628-.613 0-1.08-.205-1.404-.615-.324-.41-.49-.998-.497-1.764v-1.05c0-.797.162-1.402.485-1.815.327-.413.796-.619 1.408-.619.611 0 1.079.205 1.403.615.324.408.49.994.497 1.76v1.05zm-1.115-1.152c0-.473-.064-.816-.193-1.03-.126-.218-.324-.326-.593-.326-.263 0-.457.103-.583.31-.123.203-.188.523-.196.96v1.387c0 .465.061.811.185 1.039.126.224.326.337.601.337.273 0 .47-.109.59-.326.12-.216.184-.548.189-.995V6.273zm5.648 1.152c0 .79-.16 1.393-.482 1.81-.321.419-.792.628-1.411.628-.612 0-1.08-.205-1.403-.615-.324-.41-.49-.998-.498-1.764v-1.05c0-.797.162-1.402.486-1.815.326-.413.795-.619 1.407-.619s1.08.205 1.403.615c.324.408.49.994.498 1.76v1.05zm-1.114-1.152c0-.473-.065-.816-.193-1.03-.126-.218-.324-.326-.594-.326-.262 0-.456.103-.582.31-.123.203-.189.523-.197.96v1.387c0 .465.062.811.185 1.039.126.224.327.337.602.337.272 0 .469-.109.59-.326.12-.216.183-.548.189-.995V6.273zm4.576 3.511H79.28V5.42l-1.33.419v-.921l2.324-.846h.12v5.713zM86 7.425c0 .79-.16 1.393-.482 1.81-.321.419-.791.628-1.41.628-.613 0-1.08-.205-1.404-.615-.324-.41-.49-.998-.497-1.764v-1.05c0-.797.162-1.402.485-1.815C83.02 4.206 83.488 4 84.1 4c.612 0 1.08.205 1.404.615.323.408.49.994.497 1.76v1.05zm-1.114-1.152c0-.473-.064-.816-.193-1.03-.126-.218-.324-.326-.594-.326-.262 0-.456.103-.582.31-.123.203-.189.523-.196.96v1.387c0 .465.061.811.185 1.039.126.224.326.337.601.337.273 0 .47-.109.59-.326.12-.216.184-.548.189-.995V6.273zm-95.164 14.046h-1.114v-4.366l-1.33.42v-.922l2.324-.846h.12v5.714zm4.533 0h-1.114v-4.366l-1.33.42v-.922l2.325-.846h.12v5.714zM-.14 17.96c0 .788-.16 1.392-.481 1.81-.321.418-.792.627-1.411.627-.612 0-1.08-.205-1.403-.615-.324-.41-.49-.998-.498-1.764v-1.05c0-.797.162-1.402.486-1.815.326-.412.795-.619 1.407-.619s1.08.205 1.403.616c.324.407.49.994.498 1.76v1.05zm-1.113-1.153c0-.473-.065-.816-.193-1.03-.126-.217-.324-.326-.594-.326-.262 0-.456.104-.582.31-.123.204-.189.524-.197.96v1.387c0 .465.062.812.185 1.039.126.225.327.337.602.337.272 0 .469-.108.59-.325.12-.217.183-.549.189-.996v-1.356zm4.576 3.512H2.209v-4.366l-1.33.42v-.922l2.324-.846h.12v5.714zm5.605-2.359c0 .788-.16 1.392-.482 1.81-.321.418-.791.627-1.41.627-.613 0-1.08-.205-1.404-.615-.324-.41-.49-.998-.497-1.764v-1.05c0-.797.162-1.402.485-1.815.327-.412.796-.619 1.407-.619.612 0 1.08.205 1.404.616.324.407.49.994.497 1.76v1.05zm-1.114-1.153c0-.473-.064-.816-.193-1.03-.126-.217-.324-.326-.594-.326-.262 0-.456.104-.582.31-.123.204-.189.524-.196.96v1.387c0 .465.061.812.185 1.039.126.225.326.337.601.337.273 0 .47-.108.59-.325.12-.217.184-.549.189-.996v-1.356zm5.648 1.153c0 .788-.16 1.392-.482 1.81-.322.418-.792.627-1.411.627-.612 0-1.08-.205-1.404-.615-.323-.41-.49-.998-.497-1.764v-1.05c0-.797.162-1.402.486-1.815.326-.412.795-.619 1.407-.619s1.08.205 1.403.616c.324.407.49.994.498 1.76v1.05zm-1.114-1.153c0-.473-.065-.816-.193-1.03-.126-.217-.324-.326-.594-.326-.262 0-.456.104-.582.31-.123.204-.189.524-.197.96v1.387c0 .465.062.812.185 1.039.126.225.327.337.602.337.272 0 .469-.108.59-.325.12-.217.183-.549.188-.996v-1.356zm4.576 3.512H15.81v-4.366l-1.33.42v-.922l2.324-.846h.12v5.714zm5.605-2.359c0 .788-.16 1.392-.482 1.81-.321.418-.791.627-1.41.627-.613 0-1.08-.205-1.404-.615-.324-.41-.49-.998-.498-1.764v-1.05c0-.797.162-1.402.486-1.815.327-.412.796-.619 1.407-.619.612 0 1.08.205 1.404.616.323.407.49.994.497 1.76v1.05zm-1.114-1.153c0-.473-.064-.816-.193-1.03-.126-.217-.324-.326-.594-.326-.262 0-.456.104-.582.31-.123.204-.189.524-.196.96v1.387c0 .465.061.812.185 1.039.126.225.326.337.601.337.273 0 .47-.108.59-.325.12-.217.184-.549.189-.996v-1.356zm5.648 1.153c0 .788-.161 1.392-.482 1.81-.322.418-.792.627-1.411.627-.612 0-1.08-.205-1.404-.615-.323-.41-.49-.998-.497-1.764v-1.05c0-.797.162-1.402.486-1.815.326-.412.795-.619 1.407-.619s1.08.205 1.403.616c.324.407.49.994.498 1.76v1.05zm-1.114-1.153c0-.473-.065-.816-.193-1.03-.126-.217-.324-.326-.594-.326-.262 0-.456.104-.582.31-.123.204-.189.524-.197.96v1.387c0 .465.062.812.185 1.039.126.225.327.337.602.337.272 0 .469-.108.59-.325.12-.217.183-.549.188-.996v-1.356zm4.575 3.512H29.41v-4.366l-1.33.42v-.922l2.325-.846h.12v5.714zm5.606-2.359c0 .788-.16 1.392-.482 1.81-.321.418-.792.627-1.411.627-.612 0-1.08-.205-1.403-.615-.324-.41-.49-.998-.498-1.764v-1.05c0-.797.162-1.402.486-1.815.327-.412.796-.619 1.407-.619.612 0 1.08.205 1.404.616.323.407.49.994.497 1.76v1.05zm-1.114-1.153c0-.473-.064-.816-.193-1.03-.126-.217-.324-.326-.594-.326-.262 0-.456.104-.582.31-.123.204-.189.524-.196.96v1.387c0 .465.061.812.185 1.039.126.225.326.337.601.337.273 0 .47-.108.59-.325.12-.217.184-.549.189-.996v-1.356zm4.576 3.512h-1.114v-4.366l-1.33.42v-.922l2.324-.846h.12v5.714zm5.605-2.359c0 .788-.16 1.392-.482 1.81-.321.418-.791.627-1.41.627-.612 0-1.08-.205-1.404-.615-.324-.41-.49-.998-.497-1.764v-1.05c0-.797.162-1.402.485-1.815.327-.412.796-.619 1.408-.619.611 0 1.08.205 1.403.616.324.407.49.994.497 1.76v1.05zm-1.114-1.153c0-.473-.064-.816-.193-1.03-.126-.217-.324-.326-.593-.326-.262 0-.457.104-.582.31-.124.204-.19.524-.197.96v1.387c0 .465.062.812.185 1.039.126.225.326.337.601.337.273 0 .47-.108.59-.325.121-.217.184-.549.19-.996v-1.356zm5.647 1.153c0 .788-.16 1.392-.481 1.81-.321.418-.792.627-1.411.627-.612 0-1.08-.205-1.403-.615-.324-.41-.49-.998-.498-1.764v-1.05c0-.797.162-1.402.486-1.815.326-.412.796-.619 1.407-.619.612 0 1.08.205 1.404.616.323.407.49.994.497 1.76v1.05zm-1.113-1.153c0-.473-.064-.816-.193-1.03-.126-.217-.324-.326-.594-.326-.262 0-.456.104-.582.31-.123.204-.189.524-.197.96v1.387c0 .465.062.812.186 1.039.125.225.326.337.601.337.272 0 .469-.108.59-.325.12-.217.184-.549.189-.996v-1.356zm5.647 1.153c0 .788-.16 1.392-.481 1.81-.322.418-.792.627-1.411.627-.612 0-1.08-.205-1.404-.615-.324-.41-.49-.998-.497-1.764v-1.05c0-.797.162-1.402.486-1.815.326-.412.795-.619 1.407-.619s1.08.205 1.403.616c.324.407.49.994.497 1.76v1.05zm-1.114-1.153c0-.473-.064-.816-.192-1.03-.126-.217-.324-.326-.594-.326-.262 0-.456.104-.582.31-.124.204-.19.524-.197.96v1.387c0 .465.062.812.185 1.039.126.225.327.337.602.337.272 0 .469-.108.59-.325.12-.217.183-.549.188-.996v-1.356zm4.576 3.512h-1.114v-4.366l-1.33.42v-.922l2.325-.846h.12v5.714zm5.606-2.359c0 .788-.16 1.392-.482 1.81-.321.418-.792.627-1.411.627-.612 0-1.08-.205-1.403-.615-.324-.41-.49-.998-.498-1.764v-1.05c0-.797.162-1.402.486-1.815.326-.412.795-.619 1.407-.619s1.08.205 1.404.616c.323.407.49.994.497 1.76v1.05zm-1.114-1.153c0-.473-.065-.816-.193-1.03-.126-.217-.324-.326-.594-.326-.262 0-.456.104-.582.31-.123.204-.189.524-.196.96v1.387c0 .465.061.812.184 1.039.126.225.327.337.602.337.272 0 .469-.108.59-.325.12-.217.183-.549.189-.996v-1.356zm4.576 3.512H65.68v-4.366l-1.33.42v-.922l2.324-.846h.12v5.714zm4.533 0h-1.114v-4.366l-1.33.42v-.922l2.325-.846h.12v5.714zm4.534 0h-1.114v-4.366l-1.33.42v-.922l2.325-.846h.119v5.714zm5.605-2.359c0 .788-.16 1.392-.481 1.81-.322.418-.792.627-1.412.627-.611 0-1.079-.205-1.403-.615-.324-.41-.49-.998-.497-1.764v-1.05c0-.797.162-1.402.486-1.815.326-.412.795-.619 1.407-.619.611 0 1.08.205 1.403.616.324.407.49.994.497 1.76v1.05zm-1.114-1.153c0-.473-.064-.816-.193-1.03-.126-.217-.323-.326-.593-.326-.262 0-.456.104-.582.31-.124.204-.19.524-.197.96v1.387c0 .465.062.812.185 1.039.126.225.327.337.602.337.272 0 .469-.108.59-.325.12-.217.183-.549.188-.996v-1.356zm4.576 3.512h-1.114v-4.366l-1.33.42v-.922l2.325-.846h.12v5.714zm-94.135 8.175c0 .789-.16 1.392-.481 1.81-.322.418-.792.627-1.411.627-.612 0-1.08-.205-1.404-.615-.323-.41-.49-.998-.497-1.763v-1.05c0-.798.162-1.402.486-1.815.326-.413.795-.62 1.407-.62s1.08.206 1.403.616c.324.407.49.994.497 1.76v1.05zm-1.114-1.152c0-.473-.064-.817-.192-1.031-.126-.217-.324-.325-.594-.325-.262 0-.456.103-.582.31-.124.203-.19.523-.197.96v1.387c0 .465.062.811.185 1.038.126.225.327.337.602.337.272 0 .469-.108.59-.325.12-.217.183-.549.188-.995v-1.356zm4.576 3.511h-1.114v-4.366l-1.33.42v-.921l2.325-.847h.12v5.714zm5.605-2.359c0 .789-.16 1.392-.481 1.81-.321.418-.792.627-1.411.627-.612 0-1.08-.205-1.403-.615-.324-.41-.49-.998-.498-1.763v-1.05c0-.798.162-1.402.486-1.815.326-.413.795-.62 1.407-.62s1.08.206 1.403.616c.324.407.49.994.498 1.76v1.05zm-1.113-1.152c0-.473-.065-.817-.193-1.031-.126-.217-.324-.325-.594-.325-.262 0-.456.103-.582.31-.123.203-.189.523-.197.96v1.387c0 .465.062.811.185 1.038.126.225.327.337.602.337.272 0 .469-.108.59-.325.12-.217.183-.549.189-.995v-1.356zm4.576 3.511H2.209v-4.366l-1.33.42v-.921l2.324-.847h.12v5.714zm5.605-2.359c0 .789-.16 1.392-.482 1.81-.321.418-.791.627-1.41.627-.613 0-1.08-.205-1.404-.615-.324-.41-.49-.998-.497-1.763v-1.05c0-.798.162-1.402.485-1.815.327-.413.796-.62 1.407-.62.612 0 1.08.206 1.404.616.324.407.49.994.497 1.76v1.05zm-1.114-1.152c0-.473-.064-.817-.193-1.031-.126-.217-.324-.325-.594-.325-.262 0-.456.103-.582.31-.123.203-.189.523-.196.96v1.387c0 .465.061.811.185 1.038.126.225.326.337.601.337.273 0 .47-.108.59-.325.12-.217.184-.549.189-.995v-1.356zm4.576 3.511h-1.114v-4.366l-1.33.42v-.921l2.324-.847h.12v5.714zm4.534 0H15.81v-4.366l-1.33.42v-.921l2.324-.847h.12v5.714zm4.533 0h-1.114v-4.366l-1.33.42v-.921l2.325-.847h.12v5.714zm5.606-2.359c0 .789-.161 1.392-.482 1.81-.322.418-.792.627-1.411.627-.612 0-1.08-.205-1.404-.615-.323-.41-.49-.998-.497-1.763v-1.05c0-.798.162-1.402.486-1.815.326-.413.795-.62 1.407-.62s1.08.206 1.403.616c.324.407.49.994.498 1.76v1.05zm-1.114-1.152c0-.473-.065-.817-.193-1.031-.126-.217-.324-.325-.594-.325-.262 0-.456.103-.582.31-.123.203-.189.523-.197.96v1.387c0 .465.062.811.185 1.038.126.225.327.337.602.337.272 0 .469-.108.59-.325.12-.217.183-.549.188-.995v-1.356zm5.647 1.152c0 .789-.16 1.392-.482 1.81-.32.418-.791.627-1.41.627-.612 0-1.08-.205-1.404-.615-.324-.41-.49-.998-.497-1.763v-1.05c0-.798.162-1.402.486-1.815.326-.413.795-.62 1.407-.62.611 0 1.08.206 1.403.616.324.407.49.994.497 1.76v1.05zm-1.114-1.152c0-.473-.064-.817-.193-1.031-.126-.217-.324-.325-.593-.325-.263 0-.457.103-.582.31-.124.203-.19.523-.197.96v1.387c0 .465.062.811.185 1.038.126.225.326.337.601.337.273 0 .47-.108.59-.325.121-.217.184-.549.19-.995v-1.356zm5.648 1.152c0 .789-.16 1.392-.482 1.81-.321.418-.792.627-1.411.627-.612 0-1.08-.205-1.403-.615-.324-.41-.49-.998-.498-1.763v-1.05c0-.798.162-1.402.486-1.815.327-.413.796-.62 1.407-.62.612 0 1.08.206 1.404.616.323.407.49.994.497 1.76v1.05zm-1.114-1.152c0-.473-.064-.817-.193-1.031-.126-.217-.324-.325-.594-.325-.262 0-.456.103-.582.31-.123.203-.189.523-.196.96v1.387c0 .465.061.811.185 1.038.126.225.326.337.601.337.273 0 .47-.108.59-.325.12-.217.184-.549.189-.995v-1.356zm4.576 3.511h-1.114v-4.366l-1.33.42v-.921l2.324-.847h.12v5.714zm5.605-2.359c0 .789-.16 1.392-.482 1.81-.321.418-.791.627-1.41.627-.612 0-1.08-.205-1.404-.615-.324-.41-.49-.998-.497-1.763v-1.05c0-.798.162-1.402.485-1.815.327-.413.796-.62 1.408-.62.611 0 1.08.206 1.403.616.324.407.49.994.497 1.76v1.05zm-1.114-1.152c0-.473-.064-.817-.193-1.031-.126-.217-.324-.325-.593-.325-.262 0-.457.103-.582.31-.124.203-.19.523-.197.96v1.387c0 .465.062.811.185 1.038.126.225.326.337.601.337.273 0 .47-.108.59-.325.121-.217.184-.549.19-.995v-1.356zm5.647 1.152c0 .789-.16 1.392-.481 1.81-.321.418-.792.627-1.411.627-.612 0-1.08-.205-1.403-.615-.324-.41-.49-.998-.498-1.763v-1.05c0-.798.162-1.402.486-1.815.326-.413.796-.62 1.407-.62.612 0 1.08.206 1.404.616.323.407.49.994.497 1.76v1.05zm-1.113-1.152c0-.473-.064-.817-.193-1.031-.126-.217-.324-.325-.594-.325-.262 0-.456.103-.582.31-.123.203-.189.523-.197.96v1.387c0 .465.062.811.186 1.038.125.225.326.337.601.337.272 0 .469-.108.59-.325.12-.217.184-.549.189-.995v-1.356zm4.576 3.511h-1.114v-4.366l-1.33.42v-.921l2.324-.847h.12v5.714zm5.605-2.359c0 .789-.16 1.392-.482 1.81-.321.418-.791.627-1.41.627-.612 0-1.08-.205-1.404-.615-.324-.41-.49-.998-.497-1.763v-1.05c0-.798.162-1.402.485-1.815.327-.413.796-.62 1.407-.62.612 0 1.08.206 1.404.616.324.407.49.994.497 1.76v1.05zm-1.114-1.152c0-.473-.064-.817-.193-1.031-.126-.217-.324-.325-.593-.325-.263 0-.457.103-.583.31-.123.203-.188.523-.196.96v1.387c0 .465.062.811.185 1.038.126.225.326.337.601.337.273 0 .47-.108.59-.325.12-.217.184-.549.189-.995v-1.356zm5.648 1.152c0 .789-.16 1.392-.482 1.81-.321.418-.792.627-1.411.627-.612 0-1.08-.205-1.403-.615-.324-.41-.49-.998-.498-1.763v-1.05c0-.798.162-1.402.486-1.815.326-.413.795-.62 1.407-.62s1.08.206 1.404.616c.323.407.49.994.497 1.76v1.05zm-1.114-1.152c0-.473-.065-.817-.193-1.031-.126-.217-.324-.325-.594-.325-.262 0-.456.103-.582.31-.123.203-.189.523-.196.96v1.387c0 .465.061.811.184 1.038.126.225.327.337.602.337.272 0 .469-.108.59-.325.12-.217.183-.549.189-.995v-1.356zm5.647 1.152c0 .789-.16 1.392-.481 1.81-.322.418-.792.627-1.412.627-.611 0-1.079-.205-1.403-.615-.324-.41-.49-.998-.497-1.763v-1.05c0-.798.162-1.402.486-1.815.326-.413.795-.62 1.407-.62.611 0 1.08.206 1.403.616.324.407.49.994.497 1.76v1.05zm-1.114-1.152c0-.473-.064-.817-.193-1.031-.125-.217-.323-.325-.593-.325-.262 0-.456.103-.582.31-.124.203-.19.523-.197.96v1.387c0 .465.062.811.185 1.038.126.225.327.337.602.337.272 0 .469-.108.59-.325.12-.217.183-.549.188-.995v-1.356zm4.576 3.511h-1.114v-4.366l-1.33.42v-.921l2.325-.847h.12v5.714zm5.606-2.359c0 .789-.16 1.392-.482 1.81-.321.418-.792.627-1.411.627-.612 0-1.08-.205-1.403-.615-.324-.41-.49-.998-.498-1.763v-1.05c0-.798.162-1.402.486-1.815.326-.413.795-.62 1.407-.62s1.08.206 1.403.616c.324.407.49.994.498 1.76v1.05zm-1.114-1.152c0-.473-.065-.817-.193-1.031-.126-.217-.324-.325-.594-.325-.262 0-.456.103-.582.31-.123.203-.189.523-.197.96v1.387c0 .465.062.811.185 1.038.126.225.327.337.602.337.272 0 .469-.108.59-.325.12-.217.183-.549.189-.995v-1.356zm5.647 1.152c0 .789-.16 1.392-.481 1.81-.322.418-.792.627-1.412.627-.611 0-1.079-.205-1.403-.615-.324-.41-.49-.998-.497-1.763v-1.05c0-.798.162-1.402.486-1.815.326-.413.795-.62 1.407-.62.611 0 1.08.206 1.403.616.324.407.49.994.497 1.76v1.05zm-1.114-1.152c0-.473-.064-.817-.193-1.031-.126-.217-.323-.325-.593-.325-.262 0-.456.103-.582.31-.124.203-.19.523-.197.96v1.387c0 .465.062.811.185 1.038.126.225.327.337.602.337.272 0 .469-.108.59-.325.12-.217.183-.549.188-.995v-1.356zm4.576 3.511h-1.114v-4.366l-1.33.42v-.921l2.325-.847h.12v5.714zm-95.206 10.534h-1.114v-4.365l-1.33.419v-.921l2.324-.847h.12v5.714zm4.533 0h-1.114v-4.365l-1.33.419v-.921l2.325-.847h.12v5.714zm5.605-2.359c0 .79-.16 1.393-.481 1.81-.321.419-.792.628-1.411.628-.612 0-1.08-.205-1.403-.616-.324-.41-.49-.998-.498-1.763v-1.05c0-.797.162-1.402.486-1.815.326-.413.795-.62 1.407-.62s1.08.206 1.403.616c.324.408.49.994.498 1.76v1.05zm-1.113-1.152c0-.473-.065-.817-.193-1.03-.126-.218-.324-.326-.594-.326-.262 0-.456.103-.582.31-.123.203-.189.523-.197.96v1.387c0 .465.062.811.185 1.038.126.225.327.338.602.338.272 0 .469-.109.59-.326.12-.216.183-.548.189-.995v-1.356zm5.647 1.152c0 .79-.16 1.393-.482 1.81-.32.419-.791.628-1.41.628-.612 0-1.08-.205-1.404-.616-.324-.41-.49-.998-.497-1.763v-1.05c0-.797.162-1.402.486-1.815.326-.413.795-.62 1.407-.62.611 0 1.08.206 1.403.616.324.408.49.994.497 1.76v1.05zM3.28 37.876c0-.473-.064-.817-.192-1.03-.126-.218-.324-.326-.594-.326-.262 0-.456.103-.582.31-.124.203-.19.523-.197.96v1.387c0 .465.062.811.185 1.038.126.225.327.338.602.338.272 0 .469-.109.59-.326.12-.216.183-.548.188-.995v-1.356zm4.576 3.511H6.742v-4.365l-1.33.419v-.921l2.325-.847h.12v5.714zm5.606-2.359c0 .79-.16 1.393-.482 1.81-.322.419-.792.628-1.411.628-.612 0-1.08-.205-1.404-.616-.323-.41-.49-.998-.497-1.763v-1.05c0-.797.162-1.402.486-1.815.326-.413.795-.62 1.407-.62s1.08.206 1.403.616c.324.408.49.994.498 1.76v1.05zm-1.114-1.152c0-.473-.065-.817-.193-1.03-.126-.218-.324-.326-.594-.326-.262 0-.456.103-.582.31-.123.203-.189.523-.197.96v1.387c0 .465.062.811.185 1.038.126.225.327.338.602.338.272 0 .469-.109.59-.326.12-.216.183-.548.188-.995v-1.356zm5.647 1.152c0 .79-.16 1.393-.482 1.81-.32.419-.791.628-1.41.628-.612 0-1.08-.205-1.404-.616-.324-.41-.49-.998-.497-1.763v-1.05c0-.797.162-1.402.486-1.815.326-.413.795-.62 1.407-.62.611 0 1.08.206 1.403.616.324.408.49.994.497 1.76v1.05zm-1.114-1.152c0-.473-.064-.817-.193-1.03-.125-.218-.323-.326-.593-.326-.262 0-.456.103-.582.31-.124.203-.19.523-.197.96v1.387c0 .465.062.811.185 1.038.126.225.327.338.601.338.273 0 .47-.109.59-.326.121-.216.184-.548.19-.995v-1.356zm4.576 3.511h-1.114v-4.365l-1.33.419v-.921l2.325-.847h.12v5.714zm5.606-2.359c0 .79-.161 1.393-.482 1.81-.322.419-.792.628-1.411.628-.612 0-1.08-.205-1.404-.616-.323-.41-.49-.998-.497-1.763v-1.05c0-.797.162-1.402.486-1.815.326-.413.795-.62 1.407-.62s1.08.206 1.403.616c.324.408.49.994.498 1.76v1.05zm-1.114-1.152c0-.473-.065-.817-.193-1.03-.126-.218-.324-.326-.594-.326-.262 0-.456.103-.582.31-.123.203-.189.523-.197.96v1.387c0 .465.062.811.185 1.038.126.225.327.338.602.338.272 0 .469-.109.59-.326.12-.216.183-.548.188-.995v-1.356zm5.647 1.152c0 .79-.16 1.393-.482 1.81-.32.419-.791.628-1.41.628-.612 0-1.08-.205-1.404-.616-.324-.41-.49-.998-.497-1.763v-1.05c0-.797.162-1.402.486-1.815.326-.413.795-.62 1.407-.62.611 0 1.08.206 1.403.616.324.408.49.994.497 1.76v1.05zm-1.114-1.152c0-.473-.064-.817-.193-1.03-.126-.218-.324-.326-.593-.326-.263 0-.457.103-.582.31-.124.203-.19.523-.197.96v1.387c0 .465.062.811.185 1.038.126.225.326.338.601.338.273 0 .47-.109.59-.326.121-.216.184-.548.19-.995v-1.356zm4.576 3.511h-1.114v-4.365l-1.33.419v-.921l2.325-.847h.12v5.714zm5.606-2.359c0 .79-.161 1.393-.482 1.81-.322.419-.792.628-1.411.628-.612 0-1.08-.205-1.404-.616-.323-.41-.49-.998-.497-1.763v-1.05c0-.797.162-1.402.486-1.815.326-.413.795-.62 1.407-.62s1.08.206 1.403.616c.324.408.49.994.498 1.76v1.05zm-1.115-1.152c0-.473-.064-.817-.192-1.03-.126-.218-.324-.326-.594-.326-.262 0-.456.103-.582.31-.123.203-.19.523-.197.96v1.387c0 .465.062.811.185 1.038.126.225.327.338.602.338.272 0 .469-.109.59-.326.12-.216.183-.548.188-.995v-1.356zm5.648 1.152c0 .79-.16 1.393-.482 1.81-.321.419-.791.628-1.41.628-.612 0-1.08-.205-1.404-.616-.324-.41-.49-.998-.497-1.763v-1.05c0-.797.162-1.402.485-1.815.327-.413.796-.62 1.408-.62.611 0 1.08.206 1.403.616.324.408.49.994.497 1.76v1.05zm-1.114-1.152c0-.473-.064-.817-.193-1.03-.126-.218-.324-.326-.593-.326-.262 0-.457.103-.582.31-.124.203-.19.523-.197.96v1.387c0 .465.062.811.185 1.038.126.225.326.338.601.338.273 0 .47-.109.59-.326.121-.216.184-.548.19-.995v-1.356zm4.577 3.511h-1.115v-4.365l-1.33.419v-.921l2.325-.847h.12v5.714zm5.604-2.359c0 .79-.16 1.393-.481 1.81-.322.419-.792.628-1.411.628-.612 0-1.08-.205-1.404-.616-.324-.41-.49-.998-.497-1.763v-1.05c0-.797.162-1.402.486-1.815.326-.413.795-.62 1.407-.62s1.08.206 1.403.616c.324.408.49.994.497 1.76v1.05zm-1.114-1.152c0-.473-.064-.817-.192-1.03-.126-.218-.324-.326-.594-.326-.262 0-.456.103-.582.31-.124.203-.19.523-.197.96v1.387c0 .465.062.811.185 1.038.126.225.327.338.602.338.272 0 .469-.109.59-.326.12-.216.183-.548.188-.995v-1.356zm4.576 3.511h-1.114v-4.365l-1.33.419v-.921l2.325-.847h.12v5.714zm5.606-2.359c0 .79-.16 1.393-.482 1.81-.321.419-.792.628-1.411.628-.612 0-1.08-.205-1.403-.616-.324-.41-.49-.998-.498-1.763v-1.05c0-.797.162-1.402.486-1.815.326-.413.795-.62 1.407-.62s1.08.206 1.404.616c.323.408.49.994.497 1.76v1.05zm-1.114-1.152c0-.473-.065-.817-.193-1.03-.126-.218-.324-.326-.594-.326-.262 0-.456.103-.582.31-.123.203-.189.523-.196.96v1.387c0 .465.061.811.184 1.038.126.225.327.338.602.338.272 0 .469-.109.59-.326.12-.216.183-.548.189-.995v-1.356zm4.576 3.511H65.68v-4.365l-1.33.419v-.921l2.324-.847h.12v5.714zm5.606-2.359c0 .79-.162 1.393-.483 1.81-.321.419-.791.628-1.41.628-.613 0-1.08-.205-1.404-.616-.324-.41-.49-.998-.497-1.763v-1.05c0-.797.162-1.402.485-1.815.327-.413.796-.62 1.408-.62.611 0 1.079.206 1.403.616.324.408.49.994.497 1.76v1.05zm-1.115-1.152c0-.473-.064-.817-.193-1.03-.126-.218-.324-.326-.593-.326-.263 0-.457.103-.583.31-.123.203-.188.523-.196.96v1.387c0 .465.061.811.185 1.038.126.225.326.338.601.338.273 0 .47-.109.59-.326.12-.216.184-.548.189-.995v-1.356zm4.576 3.511h-1.114v-4.365l-1.33.419v-.921l2.325-.847h.119v5.714zm5.605-2.359c0 .79-.16 1.393-.481 1.81-.322.419-.792.628-1.412.628-.611 0-1.079-.205-1.403-.616-.324-.41-.49-.998-.497-1.763v-1.05c0-.797.162-1.402.486-1.815.326-.413.795-.62 1.407-.62.611 0 1.08.206 1.403.616.324.408.49.994.497 1.76v1.05zm-1.114-1.152c0-.473-.064-.817-.193-1.03-.126-.218-.323-.326-.593-.326-.262 0-.456.103-.582.31-.124.203-.19.523-.197.96v1.387c0 .465.062.811.185 1.038.126.225.327.338.602.338.272 0 .469-.109.59-.326.12-.216.183-.548.188-.995v-1.356zM86 39.028c0 .79-.16 1.393-.482 1.81-.321.419-.791.628-1.41.628-.613 0-1.08-.205-1.404-.616-.324-.41-.49-.998-.497-1.763v-1.05c0-.797.162-1.402.485-1.815.327-.413.796-.62 1.407-.62.612 0 1.08.206 1.404.616.323.408.49.994.497 1.76v1.05zm-1.114-1.152c0-.473-.064-.817-.193-1.03-.126-.218-.324-.326-.594-.326-.262 0-.456.103-.582.31-.123.203-.189.523-.196.96v1.387c0 .465.061.811.185 1.038.126.225.326.338.601.338.273 0 .47-.109.59-.326.12-.216.184-.548.189-.995v-1.356zM-9.207 49.562c0 .79-.16 1.393-.481 1.811-.322.418-.792.627-1.411.627-.612 0-1.08-.205-1.404-.615-.323-.41-.49-.998-.497-1.764v-1.05c0-.797.162-1.402.486-1.815.326-.412.795-.619 1.407-.619s1.08.205 1.403.615c.324.408.49.995.497 1.76v1.05zm-1.114-1.152c0-.473-.064-.816-.192-1.03-.126-.217-.324-.326-.594-.326-.262 0-.456.103-.582.31-.124.204-.19.524-.197.96v1.387c0 .465.062.812.185 1.039.126.224.327.337.602.337.272 0 .469-.109.59-.325.12-.217.183-.55.188-.996V48.41zm4.576 3.512h-1.114v-4.366l-1.33.42v-.922l2.325-.846h.12v5.714zm5.605-2.36c0 .79-.16 1.393-.481 1.811-.321.418-.792.627-1.411.627-.612 0-1.08-.205-1.403-.615-.324-.41-.49-.998-.498-1.764v-1.05c0-.797.162-1.402.486-1.815.326-.412.795-.619 1.407-.619s1.08.205 1.403.615c.324.408.49.995.498 1.76v1.05zm-1.113-1.152c0-.473-.065-.816-.193-1.03-.126-.217-.324-.326-.594-.326-.262 0-.456.103-.582.31-.123.204-.189.524-.197.96v1.387c0 .465.062.812.185 1.039.126.224.327.337.602.337.272 0 .469-.109.59-.325.12-.217.183-.55.189-.996V48.41zm4.576 3.512H2.209v-4.366l-1.33.42v-.922l2.324-.846h.12v5.714zm5.605-2.36c0 .79-.16 1.393-.482 1.811-.321.418-.791.627-1.41.627-.613 0-1.08-.205-1.404-.615-.324-.41-.49-.998-.497-1.764v-1.05c0-.797.162-1.402.485-1.815.327-.412.796-.619 1.407-.619.612 0 1.08.205 1.404.615.324.408.49.995.497 1.76v1.05zM7.814 48.41c0-.473-.064-.816-.193-1.03-.126-.217-.324-.326-.594-.326-.262 0-.456.103-.582.31-.123.204-.189.524-.196.96v1.387c0 .465.061.812.185 1.039.126.224.326.337.601.337.273 0 .47-.109.59-.325.12-.217.184-.55.189-.996V48.41zm5.648 1.152c0 .79-.16 1.393-.482 1.811-.322.418-.792.627-1.411.627-.612 0-1.08-.205-1.404-.615-.323-.41-.49-.998-.497-1.764v-1.05c0-.797.162-1.402.486-1.815.326-.412.795-.619 1.407-.619s1.08.205 1.403.615c.324.408.49.995.498 1.76v1.05zm-1.114-1.152c0-.473-.065-.816-.193-1.03-.126-.217-.324-.326-.594-.326-.262 0-.456.103-.582.31-.123.204-.189.524-.197.96v1.387c0 .465.062.812.185 1.039.126.224.327.337.602.337.272 0 .469-.109.59-.325.12-.217.183-.55.188-.996V48.41zm4.576 3.512H15.81v-4.366l-1.33.42v-.922l2.324-.846h.12v5.714zm5.605-2.36c0 .79-.16 1.393-.482 1.811-.321.418-.791.627-1.41.627-.613 0-1.08-.205-1.404-.615-.324-.41-.49-.998-.498-1.764v-1.05c0-.797.162-1.402.486-1.815.327-.412.796-.619 1.407-.619.612 0 1.08.205 1.404.615.323.408.49.995.497 1.76v1.05zm-1.114-1.152c0-.473-.064-.816-.193-1.03-.126-.217-.324-.326-.594-.326-.262 0-.456.103-.582.31-.123.204-.189.524-.196.96v1.387c0 .465.061.812.185 1.039.126.224.326.337.601.337.273 0 .47-.109.59-.325.12-.217.184-.55.189-.996V48.41zm5.648 1.152c0 .79-.161 1.393-.482 1.811-.322.418-.792.627-1.411.627-.612 0-1.08-.205-1.404-.615-.323-.41-.49-.998-.497-1.764v-1.05c0-.797.162-1.402.486-1.815.326-.412.795-.619 1.407-.619s1.08.205 1.403.615c.324.408.49.995.498 1.76v1.05zm-1.114-1.152c0-.473-.065-.816-.193-1.03-.126-.217-.324-.326-.594-.326-.262 0-.456.103-.582.31-.123.204-.189.524-.197.96v1.387c0 .465.062.812.185 1.039.126.224.327.337.602.337.272 0 .469-.109.59-.325.12-.217.183-.55.188-.996V48.41zm4.575 3.512H29.41v-4.366l-1.33.42v-.922l2.325-.846h.12v5.714zm5.606-2.36c0 .79-.16 1.393-.482 1.811-.321.418-.792.627-1.411.627-.612 0-1.08-.205-1.403-.615-.324-.41-.49-.998-.498-1.764v-1.05c0-.797.162-1.402.486-1.815.327-.412.796-.619 1.407-.619.612 0 1.08.205 1.404.615.323.408.49.995.497 1.76v1.05zm-1.114-1.152c0-.473-.064-.816-.193-1.03-.126-.217-.324-.326-.594-.326-.262 0-.456.103-.582.31-.123.204-.189.524-.196.96v1.387c0 .465.061.812.185 1.039.126.224.326.337.601.337.273 0 .47-.109.59-.325.12-.217.184-.55.189-.996V48.41zm5.648 1.152c0 .79-.161 1.393-.482 1.811-.322.418-.792.627-1.411.627-.612 0-1.08-.205-1.404-.615-.323-.41-.49-.998-.497-1.764v-1.05c0-.797.162-1.402.486-1.815.326-.412.795-.619 1.407-.619s1.08.205 1.403.615c.324.408.49.995.498 1.76v1.05zm-1.115-1.152c0-.473-.064-.816-.192-1.03-.126-.217-.324-.326-.594-.326-.262 0-.456.103-.582.31-.123.204-.19.524-.197.96v1.387c0 .465.062.812.185 1.039.126.224.327.337.602.337.272 0 .469-.109.59-.325.12-.217.183-.55.188-.996V48.41zm4.577 3.512H43.01v-4.366l-1.33.42v-.922l2.325-.846h.12v5.714zm5.604-2.36c0 .79-.16 1.393-.481 1.811-.321.418-.792.627-1.411.627-.612 0-1.08-.205-1.403-.615-.324-.41-.49-.998-.498-1.764v-1.05c0-.797.162-1.402.486-1.815.326-.412.796-.619 1.407-.619.612 0 1.08.205 1.404.615.323.408.49.995.497 1.76v1.05zm-1.113-1.152c0-.473-.064-.816-.193-1.03-.126-.217-.324-.326-.594-.326-.262 0-.456.103-.582.31-.123.204-.189.524-.197.96v1.387c0 .465.062.812.186 1.039.125.224.326.337.601.337.272 0 .469-.109.59-.325.12-.217.184-.55.189-.996V48.41zm5.647 1.152c0 .79-.16 1.393-.481 1.811-.322.418-.792.627-1.411.627-.612 0-1.08-.205-1.404-.615-.324-.41-.49-.998-.497-1.764v-1.05c0-.797.162-1.402.486-1.815.326-.412.795-.619 1.407-.619s1.08.205 1.403.615c.324.408.49.995.497 1.76v1.05zM53.15 48.41c0-.473-.064-.816-.192-1.03-.126-.217-.324-.326-.594-.326-.262 0-.456.103-.582.31-.124.204-.19.524-.197.96v1.387c0 .465.062.812.185 1.039.126.224.327.337.602.337.272 0 .469-.109.59-.325.12-.217.183-.55.188-.996V48.41zm4.576 3.512h-1.114v-4.366l-1.33.42v-.922l2.325-.846h.12v5.714zm5.606-2.36c0 .79-.16 1.393-.482 1.811-.321.418-.792.627-1.411.627-.612 0-1.08-.205-1.403-.615-.324-.41-.49-.998-.498-1.764v-1.05c0-.797.162-1.402.486-1.815.326-.412.795-.619 1.407-.619s1.08.205 1.404.615c.323.408.49.995.497 1.76v1.05zm-1.114-1.152c0-.473-.065-.816-.193-1.03-.126-.217-.324-.326-.594-.326-.262 0-.456.103-.582.31-.123.204-.189.524-.196.96v1.387c0 .465.061.812.184 1.039.126.224.327.337.602.337.272 0 .469-.109.59-.325.12-.217.183-.55.189-.996V48.41zm5.647 1.152c0 .79-.16 1.393-.481 1.811-.322.418-.792.627-1.412.627-.611 0-1.079-.205-1.403-.615-.324-.41-.49-.998-.497-1.764v-1.05c0-.797.162-1.402.486-1.815.326-.412.795-.619 1.407-.619.611 0 1.08.205 1.403.615.324.408.49.995.497 1.76v1.05zm-1.114-1.152c0-.473-.064-.816-.193-1.03-.125-.217-.323-.326-.593-.326-.262 0-.456.103-.582.31-.124.204-.19.524-.197.96v1.387c0 .465.062.812.185 1.039.126.224.327.337.602.337.272 0 .469-.109.59-.325.12-.217.183-.55.188-.996V48.41zm4.576 3.512h-1.114v-4.366l-1.33.42v-.922l2.325-.846h.12v5.714zm5.606-2.36c0 .79-.16 1.393-.482 1.811-.321.418-.792.627-1.411.627-.612 0-1.08-.205-1.403-.615-.324-.41-.49-.998-.498-1.764v-1.05c0-.797.162-1.402.486-1.815.326-.412.795-.619 1.407-.619s1.08.205 1.403.615c.324.408.49.995.498 1.76v1.05zm-1.114-1.152c0-.473-.065-.816-.193-1.03-.126-.217-.324-.326-.594-.326-.262 0-.456.103-.582.31-.123.204-.189.524-.197.96v1.387c0 .465.062.812.185 1.039.126.224.327.337.602.337.272 0 .469-.109.59-.325.12-.217.183-.55.189-.996V48.41zm4.576 3.512H79.28v-4.366l-1.33.42v-.922l2.324-.846h.12v5.714zM86 49.562c0 .79-.16 1.393-.482 1.811-.321.418-.791.627-1.41.627-.613 0-1.08-.205-1.404-.615-.324-.41-.49-.998-.497-1.764v-1.05c0-.797.162-1.402.485-1.815.327-.412.796-.619 1.407-.619.612 0 1.08.205 1.404.615.323.408.49.995.497 1.76v1.05zm-1.114-1.152c0-.473-.064-.816-.193-1.03-.126-.217-.324-.326-.594-.326-.262 0-.456.103-.582.31-.123.204-.189.524-.196.96v1.387c0 .465.061.812.185 1.039.126.224.326.337.601.337.273 0 .47-.109.59-.325.12-.217.184-.55.189-.996V48.41z"/></g><path opacity=".5" fill="#0AF" d="M18 62h3v20h-3zm4 0h3v17h-3zm4 0h3v19h-3zm4 0h3v18h-3zm4 0h3v20h-3zm4 0h3v19h-3zm4 0h3v19h-3zm4 0h3v18h-3zm4 0h3v19h-3z"/><rect x="9" y="54" width="53" height="16" rx="4" fill="#AEC1DD"/><rect x="9" y="54" width="53" height="8" rx="4" fill="#DDE8FA"/><rect x="12" y="56" width="47" height="4" rx="2" fill="#005580"/><path fill-rule="evenodd" clip-rule="evenodd" d="M52.998 58c.002-.155.002-.31.002-.466v-9.976c-.071-7.271-1.6-12.843-4.588-16.714C45.424 26.948 41.108 25 35.465 25c-5.644 0-9.972 1.96-12.983 5.881C19.494 34.802 18 40.547 18 48.116V58h10.28V45.771c.07-4.144.675-7.184 1.814-9.12 1.162-1.96 2.952-2.94 5.37-2.94 2.49 0 4.316 1.03 5.478 3.09 1.186 2.034 1.779 5.297 1.779 9.79V58h10.277z" fill="url(#paint0_linear)"/><defs><linearGradient id="paint0_linear" x1="35.5" y1="25" x2="35.5" y2="58" gradientUnits="userSpaceOnUse"><stop stop-color="#0AF"/><stop offset="1" stop-color="#0075FF"/></linearGradient></defs></svg>